HIERARCHY
ROOT hip
{
	OFFSET 0.000000 0.000000 0.000000 
	CHANNELS 6 Xposition Yposition Zposition Xrotation Zrotation Yrotation
	JOINT abdomen
	{
		OFFSET 0.000000 3.402643 0.000000 
		CHANNELS 3 Xrotation Zrotation Yrotation
		JOINT chest
		{
			OFFSET 0.000000 8.438565 -0.680529 
			CHANNELS 3 Xrotation Zrotation Yrotation
			JOINT neck
			{
				OFFSET 0.000000 10.207942 -0.272212 
				CHANNELS 3 Xrotation Zrotation Yrotation
				JOINT head
				{
					OFFSET 0.000000 3.130431 0.000000 
					CHANNELS 3 Xrotation Zrotation Yrotation
					End Site
					{
						OFFSET 0.000000 3.130435 0.000000 
					}
				}
			}
			JOINT lCollar
			{
				OFFSET 3.470700 6.669187 -0.816635 
				CHANNELS 3 Yrotation Zrotation Xrotation
				JOINT lShldr
				{
					OFFSET 3.198488 0.000000 0.000000 
					CHANNELS 3 Zrotation Yrotation Xrotation
					JOINT lForeArm
					{
						OFFSET 10.139888 0.000000 0.000000 
						CHANNELS 3 Yrotation Zrotation Xrotation
						JOINT lHand
						{
							OFFSET 8.370511 0.000000 0.000000 
							CHANNELS 3 Zrotation Yrotation Xrotation
							End Site
							{
								OFFSET 4.083176 0.000000 0.000000 
							}
						}
					}
				}
			}
			JOINT rCollar
			{
				OFFSET -3.470700 6.669187 -0.816635 
				CHANNELS 3 Yrotation Zrotation Xrotation
				JOINT rShldr
				{
					OFFSET -3.198488 0.000000 0.000000 
					CHANNELS 3 Zrotation Yrotation Xrotation
					JOINT rForeArm
					{
						OFFSET -10.139888 0.000000 0.000000 
						CHANNELS 3 Yrotation Zrotation Xrotation
						JOINT rHand
						{
							OFFSET -8.370511 0.000000 0.000000 
							CHANNELS 3 Zrotation Yrotation Xrotation
							End Site
							{
								OFFSET -4.083176 0.000000 0.000000 
							}
						}
					}
				}
			}
		}
	}
	JOINT lThigh
	{
		OFFSET 5.308129 -1.633274 1.361059 
		CHANNELS 3 Xrotation Zrotation Yrotation
		JOINT lShin
		{
			OFFSET -2.041588 -20.007561 0.000000 
			CHANNELS 3 Xrotation Zrotation Yrotation
			JOINT lFoot
			{
				OFFSET 0.000000 -19.190928 -1.224953 
				CHANNELS 3 Xrotation Yrotation Zrotation
				End Site
				{
					OFFSET 0.000000 -2.449906 4.627600 
				}
			}
		}
	}
	JOINT rThigh
	{
		OFFSET -5.308129 -1.633274 1.361059 
		CHANNELS 3 Xrotation Zrotation Yrotation
		JOINT rShin
		{
			OFFSET 2.041588 -20.007561 0.000000 
			CHANNELS 3 Xrotation Zrotation Yrotation
			JOINT rFoot
			{
				OFFSET 0.000000 -19.190928 -1.224953 
				CHANNELS 3 Xrotation Yrotation Zrotation
				End Site
				{
					OFFSET 0.000000 -2.449906 4.627600 
				}
			}
		}
	}
}
MOTION
Frames: 11
Frame Time: 0.016667
21.300520 46.895966 7.494791 -3.399092 -0.331886 103.648376 0.000000 0.000000 0.000000 -1.249280 2.451100 -0.439469 -8.896947 -6.954390 -15.576512 4.259998 -10.553300 -14.828094 -3.018619 9.996185 0.455363 -60.642342 3.335007 -20.999857 -80.972839 -0.595904 3.460602 3.482872 -19.738686 -54.005524 2.956771 -9.801842 0.445776 71.500298 54.125603 34.502544 70.292488 0.595349 3.262422 1.061450 8.113039 -40.570538 -21.027363 -2.870505 1.469330 47.880657 -2.431586 11.698980 -13.538619 1.832904 -4.403775 -35.198498 -6.424180 -7.754176 21.841433 3.463212 -30.570889 27.352425 16.335083 41.789257 
20.885918 46.406662 7.387300 -3.166217 -0.260116 95.247475 0.000000 0.000000 0.000000 -0.542983 3.378723 -0.596394 -8.741056 -7.342016 -16.565571 3.663495 -11.994359 -15.474669 -3.055130 10.032937 0.493761 -60.739918 4.178043 -24.657990 -77.279373 -0.578738 3.393120 3.158763 -18.174974 -52.126732 2.941967 -9.761428 0.476273 62.127415 55.551411 29.115570 70.918747 0.583003 3.270661 -1.238252 5.700809 -44.691750 -22.395662 -3.329089 2.447606 49.728355 -2.426495 17.494053 -14.635130 3.149881 -5.545115 -35.616718 -7.702627 -7.033599 18.656023 3.431344 -33.599556 27.114056 14.829252 37.361691 
20.799585 46.088402 7.185948 -2.879363 0.652094 90.263084 0.000000 0.000000 0.000000 0.950068 3.964577 -0.665174 -8.501299 -7.851845 -17.819777 4.053692 -12.817029 -16.669130 -3.096693 10.048533 0.564366 -59.048172 4.225595 -26.074856 -72.034492 -0.573035 3.293543 0.411439 -17.981823 -49.003792 2.924134 -9.728891 0.545220 55.785431 54.725662 21.985008 68.984001 0.580474 3.240576 -3.300506 4.106591 -44.148060 -22.598885 -3.349148 4.133329 51.371807 -2.253811 20.143913 -14.315047 4.291390 -7.127787 -35.217804 -11.237532 -6.974162 18.514172 3.475379 -27.499096 28.617519 12.802018 31.869591 
20.713270 45.770630 6.985424 -2.662714 1.580745 85.286926 0.000000 0.000000 0.000000 2.442359 4.560184 -0.724251 -8.244629 -8.359539 -19.077942 4.480320 -13.623939 -17.873117 -3.138408 10.073810 0.633264 -57.356480 4.313967 -27.473661 -66.775909 -0.583686 3.194688 -2.314267 -17.647717 -45.888485 2.906226 -9.696410 0.614171 49.796902 53.477104 15.192186 67.034744 0.578043 3.211232 -5.373563 2.525979 -43.543427 -22.809185 -3.349201 5.786823 53.013512 -2.203322 22.809544 -13.969423 5.436695 -8.724251 -34.812714 -14.774690 -6.946781 18.366188 3.533342 -21.419994 29.903917 10.661913 26.472496 
20.629831 45.619926 7.071945 -3.728226 1.018239 83.665100 0.000000 0.000000 0.000000 2.084090 6.044040 -0.981416 -7.966218 -9.092360 -20.989973 5.522888 -13.829436 -19.978714 -3.176380 10.132516 0.623638 -54.202503 3.314377 -26.280291 -60.908710 -0.602413 3.097723 -3.081246 -17.199072 -41.372227 2.863220 -9.639209 0.594956 45.354858 50.401108 5.917467 63.164635 0.597703 3.143215 -4.886573 1.970900 -39.823921 -24.412098 -1.230564 7.449896 55.055218 -2.091574 21.944633 -13.340139 6.169656 -9.429303 -34.159107 -17.841129 -6.710681 18.485844 3.521685 -21.354832 33.592777 9.891766 22.030510 
20.546661 45.469368 7.158901 -4.765810 0.424389 82.052261 0.000000 0.000000 0.000000 1.710873 7.537287 -1.250012 -7.658845 -9.813381 -22.902987 6.571237 -13.988726 -22.094618 -3.204674 10.201102 0.614022 -51.070366 2.248409 -25.146955 -55.049759 -0.636923 3.001898 -3.810815 -16.704338 -36.867970 2.820155 -9.572211 0.574106 41.947681 46.953365 -2.427477 59.295181 0.611518 3.072205 -4.444064 1.380503 -36.101234 -25.948975 0.926155 9.042129 57.096424 -1.945926 21.080393 -12.696819 6.904737 -10.140317 -33.508945 -20.893456 -6.457735 18.576208 3.520183 -21.337812 37.189793 8.866553 17.668352 
20.555470 45.368065 7.397254 -5.579590 -0.958426 81.086060 0.000000 0.000000 0.000000 0.359593 8.697993 -1.560663 -7.525524 -10.167295 -23.964804 7.313717 -13.518691 -23.380024 -3.232013 10.263142 0.543359 -48.812592 2.402337 -25.225613 -51.957924 -0.660250 2.957110 -5.380040 -14.703164 -32.146431 2.780457 -9.516759 0.514783 37.663700 44.708389 -12.608600 52.978306 0.655326 2.971961 -2.650804 0.082812 -26.580307 -27.893984 3.259619 10.723702 58.768333 -1.837008 20.059193 -12.311211 7.537740 -10.770249 -32.515869 -23.463631 -6.443639 18.471821 3.502370 -24.022284 39.129860 8.408691 15.465321 
20.564636 45.267094 7.635994 -6.369017 -2.352935 80.127251 0.000000 0.000000 0.000000 -1.007509 9.848243 -1.892859 -7.394785 -10.520730 -25.019440 8.052776 -13.039570 -24.661736 -3.251217 10.324788 0.484032 -46.557129 2.555147 -25.286455 -48.868225 -0.684988 2.911442 -6.743060 -12.586238 -27.532803 2.729489 -9.461775 0.445839 34.119289 41.989956 -22.133627 46.652065 0.712198 2.876685 -1.115478 -1.487863 -17.100122 -29.775072 5.624916 12.324188 60.459843 -1.720098 19.075111 -11.966669 8.137948 -11.395617 -31.508278 -26.029840 -6.464833 18.366888 3.494343 -26.715847 41.031418 7.874734 13.292706 
20.695454 45.278419 8.009692 -6.930276 -3.104777 79.099953 0.000000 0.000000 0.000000 -1.805705 10.442387 -2.093664 -7.284866 -10.787448 -25.742876 8.533569 -12.190484 -25.648378 -3.275339 10.345748 0.455242 -44.297798 3.562548 -24.355747 -47.279629 -0.705798 2.889789 -6.616485 -10.486480 -24.739855 2.704938 -9.443777 0.415374 27.701223 39.322258 -31.466087 38.305798 0.782771 2.758848 -0.311935 -0.922613 -8.138836 -30.276388 7.633260 13.619507 61.099190 -1.683085 18.690214 -11.916798 8.528829 -11.921154 -29.441643 -27.839741 -7.713339 18.825455 3.454751 -28.592878 41.601955 7.911664 12.609546 
20.826225 45.290764 8.383834 -7.486660 -3.865668 78.072449 0.000000 0.000000 0.000000 -2.608177 11.036256 -2.298243 -7.165535 -11.047818 -26.476294 9.006864 -11.332570 -26.634401 -3.291535 10.376015 0.436051 -42.011997 4.533379 -23.396193 -45.691799 -0.717926 2.866009 -6.393360 -8.393289 -21.948462 2.670576 -9.416058 0.386513 22.163671 35.937386 -40.003017 29.975729 0.868400 2.656025 0.568974 -0.496650 0.834861 -30.728622 9.655678 14.934455 61.709324 -1.633643 18.292963 -11.857538 8.901310 -12.445641 -27.299816 -29.602264 -9.025586 19.260319 3.440651 -30.487064 42.158192 7.927949 11.904768 
20.942505 45.650242 8.914342 -8.271252 -3.611938 76.733582 0.000000 0.000000 0.000000 -1.787093 11.446002 -2.309688 -7.045502 -11.200165 -26.910795 8.710769 -10.304595 -27.292248 -3.316500 10.383939 0.464812 -39.896507 3.938208 -23.716829 -42.771320 -0.750600 2.817887 -4.829625 -5.384710 -19.454800 2.665592 -9.404996 0.415387 20.856491 32.977856 -46.701267 24.869114 0.905214 2.604641 -0.913129 -0.168254 11.810604 -29.607214 12.000309 15.976444 61.387569 -1.671905 17.855976 -10.278898 8.776584 -13.805320 -24.654097 -30.032034 -10.459142 20.593414 3.402336 -30.486567 42.166080 7.621600 11.007504 
